<svg width="124" height="98" viewBox="0 0 124 98" fill="none"
    xmlns="http://www.w3.org/2000/svg">
    <g id="Triangles">
        <g id="lightGroup">
            <path id="light1" opacity="0.6" d="M50.0695 47.2761C51.3841 48.0494 51.3841 49.9506 50.0695 50.7239L16.264 70.6097C14.9308 71.394 13.25 70.4327 13.25 68.8858V29.1142C13.25 27.5673 14.9308 26.606 16.2641 27.3903L50.0695 47.2761Z" fill="#43C4ED"/>
        </g>
        <g id="darkGroup">
            <path id="dark2" opacity="0.8" d="M51 47.268C52.3333 48.0378 52.3333 49.9623 51 50.7321L16.5 70.6506C15.1667 71.4204 13.5 70.4582 13.5 68.9186V29.0814C13.5 27.5418 15.1667 26.5796 16.5 27.3494L51 47.268Z" fill="#635BFF"/>
            <path id="dark1" opacity="0.8" d="M67.8195 47.6588C69.1341 48.4321 69.1341 50.3332 67.8195 51.1065L34.014 70.9924C32.6808 71.7767 31 70.8154 31 69.2685V29.4969C31 27.95 32.6808 26.9887 34.0141 27.773L67.8195 47.6588Z" fill="#635BFF"/>
        </g>
    </g>
</svg>
